<?xml version="1.0" encoding="UTF-8"?>
<!-- Created with Inkscape (http://www.inkscape.org/) -->
<svg width="210mm" height="297mm" version="1.1" viewBox="0 0 210 297" xml:space="preserve" xmlns="http://www.w3.org/2000/svg"><g transform="translate(2.6355 15.813)"><path d="m123.47 203.73c-1.4552-0.16799-3.9158-0.38797-5.468-0.48884-1.5522-0.10087-4.3304-0.2814-6.1736-0.40117-1.8433-0.11977-4.3039-0.50086-5.468-0.84686-1.6473-0.48958-2.7034-0.57498-4.7625-0.38509-4.525 0.41731-18.697 0.43269-18.697 0.0203 0-0.20282 0.45433-0.36876 1.0096-0.36876 1.1261 0 9.012-2.1703 14.16-3.897 27.484-9.2186 48.902-25.807 72.28-55.982 1.9896-2.568 3.7418-4.7459 3.8938-4.8399 0.15201-0.094 0.33027 1.0546 0.39614 2.5524 0.57138 12.993-2.8657 23.882-10.708 33.923-0.97598 1.2497-1.7745 2.48-1.7745 2.734 0 0.25405-0.0808 0.38109-0.17962 0.2823-0.23306-0.23306-1.8195 1.2546-1.8195 1.7062 0 0.1899 0.29644 3e-3 0.65874-0.41427 0.76323-0.88 1.6463-0.97431 2.3678-0.25286 0.56122 0.56122 0.0719 1.1168-0.61158 0.69436-0.23331-0.14419-0.31221-0.0979-0.18471 0.10842 0.24895 0.40281-0.91905 1.6147-1.2887 1.3372-0.12977-0.0974-0.15795-0.0727-0.0626 0.055 0.0953 0.12766-0.0237 0.47865-0.26459 0.77996-1.4165 1.7722 2.3087-1.5668 4.5994-4.1224 7.3385-8.1874 10.663-15.034 11.851-24.406 0.0861-0.6791 0.18792-1.3141 0.22629-1.4111 0.73223-1.8515 1.3522 16.86 0.70132 21.167-0.89116 5.8964-1.9571 10.231-2.5162 10.231-0.19171 0-0.26828 0.1299-0.17015 0.28867 0.32341 0.52329-2.519 5.7906-3.6108 6.6912-0.3206 0.26446-0.38447 0.38032-0.14194 0.25746 3.4959-1.7708-4.4281 6.2596-8.8256 8.9441-2.3924 1.4605-4.2666 2.0922-2.1105 0.71133 2.0982-1.3437 1.1843-1.0822-1.8944 0.54219-1.6725 0.88241-3.2052 1.5029-3.4059 1.3788-0.2051-0.12676-0.25949-0.0549-0.12418 0.16403 0.28731 0.46488-0.7589 1.0815-2.1381 1.2602-0.54577 0.0707-1.442 0.30965-1.9917 0.53102-0.54968 0.22137-1.7312 0.49033-2.6257 0.5977s-1.7434 0.26763-1.8866 0.35614c-0.14321 0.0885-0.36486-8e-3 -0.49255-0.21475-0.16111-0.26068-0.36747-0.26338-0.6742-9e-3 -0.24311 0.20176-0.52078 0.28808-0.61705 0.19182-0.0963-0.0963-1.0342-0.0106-2.0842 0.19027-2.5512 0.48814-16.049 0.72827-19.372 0.34464zm40.746-7.5793c0.70555-0.57448 0.70555-0.57448 0-0.22809-0.38806 0.19052-1.0231 0.60491-1.4111 0.92087-0.70556 0.57448-0.70556 0.57448 0 0.22809 0.38805-0.19052 1.023-0.60491 1.4111-0.92087zm5.6498-5.0568c1.2868-1.6523 1.2868-1.6523-0.11082-0.11081-0.76869 0.84783-2.0913 2.1704-2.9392 2.9392-1.5415 1.3976-1.5415 1.3976 0.11082 0.11082 0.90878-0.70775 2.2314-2.0304 2.9392-2.9392zm-113.43 10.055c-0.10143-0.10965-1.1333-0.23766-2.2931-0.28448-12.282-0.49573-20.302-8.7575-22.06-22.723-0.58851-4.6755-0.13804-16.518 0.88916-23.375 0.28211-1.8833 0.62196-4.7388 0.75523-6.3456 0.29599-3.5688 0.66941-3.9662 0.97546-1.0381 0.29692 2.8408 6.0607 14.631 7.6253 15.598 0.38917 0.24052-0.07508-1.4375-0.78566-2.8398-1.5589-3.0762-5.5377-16.069-6.7456-22.028-0.71563-3.5302-2.4082-16.529-2.2457-17.247 0.07077-0.31256 0.25631 0.30483 0.41231 1.372 2.473 16.918 13.651 37.165 26.956 48.828 13.414 11.759 26.931 16.902 43.868 16.693 3.6286-0.0448 6.4861 0.0134 6.35 0.1293-0.26887 0.22908-11.067 4.6521-15.064 6.1703-2.9184 1.1086-9.3591 3.1386-12.347 3.8918-1.1642 0.29345-2.7517 0.69405-3.5278 0.89024-0.77611 0.19618-2.2049 0.50138-3.175 0.67821s-3.0339 0.56335-4.5861 0.85894c-2.8264 0.53823-14.654 1.1461-15.001 0.77097zm-13.045-36.931c-0.20768-0.38806-0.45698-0.70556-0.55399-0.70556-0.09701 0-0.0065 0.3175 0.20121 0.70556 0.20768 0.38805 0.45698 0.70555 0.55399 0.70555 0.09701 0 0.0065-0.3175-0.20121-0.70555zm104.44-2.1366c4.9874-7.0042 3.3308-43.102-2.2467-48.956-3.2752-3.4375-14.312-6.4566-25.46-6.965-2.1343-0.0973-4.7537-0.24476-5.8208-0.32765-1.0672-0.0829-5.4725-0.15641-9.7896-0.16341-7.5219-0.0122-10.118-0.38334-5.8208-0.83209 3.4294-0.35811 4.0659-0.50108 7.8696-1.768 3.8833-1.2934 8.187-3.0283 18.361-7.4019 8.5108-3.6586 16.885-6.5914 18.821-6.5914 0.42924 0 0.88949-0.10907 1.0228-0.24237 0.1333-0.1333 0.51695-0.27002 0.85254-0.30382 0.3356-0.0338 1.9406-0.26352 3.5666-0.51049 15.318-2.3266 25.361 8.1885 24.608 25.766-0.57898 13.528-5.9255 24.453-21.313 43.553-3.6815 4.5696-6.7685 7.7184-4.6495 4.7426zm-91.222-1.0619c-0.12789-0.20694-0.15688-0.45191-0.0644-0.54439 0.09247-0.0925 0.26214 0.0768 0.37703 0.37625 0.23854 0.62164 0.03523 0.73098-0.31263 0.16814zm-0.72384-1.3048c-0.60215-0.40477-5.0873-6.59-7.6065-10.49-4.2911-6.6427-5.552-8.8243-7.544-13.053-1.0969-2.3283-2.3856-4.9869-2.8638-5.908-0.47822-0.92107-0.77376-1.8296-0.65676-2.0189 0.117-0.1893-0.18137-1.182-0.66305-2.2059-0.92214-1.9602-2.2855-7.9466-2.1514-9.4464 0.04338-0.48507-0.08115-1.0846-0.27674-1.3323-0.39293-0.49762-0.12857-4.3902 0.61629-9.0747 0.12341-0.77611 0.27113-1.7438 0.32828-2.1504 0.05715-0.4066 0.20879-0.90898 0.33698-1.1164 0.12819-0.20742 0.05523-0.43641-0.16214-0.50887-0.8313-0.2771 2.7329-6.7423 3.6144-6.5563 0.2896 0.0611 0.43891-0.14617 0.37567-0.52154-0.05772-0.34262 0.05249-0.58074 0.2449-0.52917 0.35223 0.09442 3.5642-3.1702 3.5642-3.6226 0-0.36555 5.1301-4.2211 5.6165-4.2211 0.23231 0 0.31098 0.18026 0.17482 0.40057-0.23044 0.37286 1.9333-1.0226 2.3226-1.4979 0.36354-0.44386 2.6785-1.4937 3.5278-1.5999 2.5095-0.31373 3.3602-0.58003 2.6493-0.82938-0.66815-0.23437-0.3159-0.33846 5.4646-1.6148 5.1276-1.1322 21.543-2.027 22.053-1.2021 0.09486 0.15349 0.79988 0.19492 1.5667 0.09206 0.76683-0.10285 1.6796-0.06334 2.0284 0.0878 0.3488 0.15114 0.91199 0.24042 1.2515 0.19841 0.33955-0.04201 0.61818 0.05265 0.61919 0.21037 1e-3 0.15772 0.59632 0.32708 1.3229 0.37637 0.7266 0.04929 2.8292 0.4845 4.6725 0.96714 3.2254 0.84454 10.354 2.3742 13.177 2.8275 0.74743 0.12002 1.3022 0.27502 1.2327 0.34445-0.0694 0.06943-2.6653-0.18501-5.7687-0.56543-13.057-1.6005-14.068-1.6727-21.517-1.5342-9.86 0.18325-15.603 1.0941-22.489 3.5668-2.6938 0.96731-6.6153 2.8293-6.6153 3.1411 0 0.10105 0.33454 0.0047 0.74343-0.21415 0.53764-0.28774 0.85013-0.29117 1.1289-0.01241 0.2397 0.2397 0.25088 0.38546 0.02955 0.38546-0.19575 0-0.66406 0.23107-1.0407 0.51349s0.86886-0.12185 2.7678-0.89837c9.3776-3.8348 24.91-5.4043 38.352-3.8753 5.769 0.65622 6.3006 0.72245 10.054 1.2527 12.56 1.7743 17.86 1.4842 28.575-1.5638 8.2545-2.3481 14.566-3.0339 8.6431-0.93914-3.1768 1.1235-7.7304 3.0197-13.229 5.5087-1.3582 0.6148-3.9776 1.7188-5.8208 2.4534-1.8433 0.73457-4.0658 1.6576-4.9389 2.0512-7.533 3.3957-17.961 6.9475-22.461 7.6499-0.74331 0.11604-1.5896 0.28293-1.8806 0.37088-1.8228 0.55077-11.544 1.6653-15.699 1.7997-6.1706 0.19971-14.479 1.0938-15.391 1.6562-2.7406 1.6912-6.0094 8.1719-6.5272 12.941-0.11543 1.0632-0.33686 2.267-0.49208 2.6753-0.15522 0.40824-0.13987 0.96714 0.0341 1.242 0.2427 0.38343 0.31757 0.31985 0.32171-0.27321 3e-3 -0.42511 0.15245-0.86381 0.33217-0.97488 0.18775-0.11604 0.25917 0.34306 0.16786 1.0792-0.08739 0.70462-0.29949 3.0301-0.47132 5.1677-0.18552 2.3078-0.48305 3.992-0.73249 4.1462-0.29906 0.18483-0.35943 1.1111-0.20956 3.2155 0.11578 1.6257 0.29569 5.0196 0.39981 7.542 0.20253 4.9064 0.21944 5.1038 1.0118 11.811 0.57024 4.827 0.53912 5.1892-0.30553 3.5558-0.46712-0.90331-1.2457-1.2213-1.2457-0.50877 0 0.097 0.15875 0.0783 0.35278-0.0416 0.19403-0.11992 0.35278-0.0669 0.35278 0.11782s-0.23545 0.42621-0.52322 0.53663c-0.29772 0.11425-0.4335 0.4346-0.31504 0.7433 0.23075 0.60133 0.14287 0.65712-0.42926 0.27254zm-0.18226-2.3198c-0.33428-0.73366-0.31928-1.0427 0.07499-1.5449 0.45789-0.58328 0.44437-0.59028-0.19057-0.0986-0.62366 0.4829-0.66257 0.47359-0.44501-0.10652 0.13161-0.35092 0.09492-0.547-0.08191-0.43772-0.17617 0.10888-0.50767-0.36976-0.73667-1.0636-0.229-0.69388-0.48882-1.1892-0.57736-1.1006-0.08855 0.0885 0.34748 1.3723 0.96894 2.8528 0.62146 1.4805 1.1919 2.6298 1.2677 2.5541 0.07577-0.0758-0.05027-0.55045-0.28009-1.0548zm-2.1219-8.5675c-0.85376-2.4347-1.0206-2.6906-0.8603-1.3189 0.06499 0.55602 0.13626 1.2981 0.15839 1.6491 0.02212 0.351 0.19716 0.54119 0.38896 0.42265 0.19998-0.1236 0.25912 0.018 0.13865 0.33195-0.11555 0.30112-0.03436 0.54749 0.18043 0.54749 0.21479 0 0.39052 0.15377 0.39052 0.34171s-0.23812 0.25033-0.52917 0.13865c-0.29104-0.11169-0.52917-0.018-0.52917 0.20828 0 0.22623 0.17576 0.30271 0.39057 0.16995 0.26452-0.16348 0.31729 0.029 0.1635 0.59654-0.21328 0.78702-0.19484 0.78163 0.30353-0.0888 0.48258-0.84289 0.46484-1.1143-0.19591-2.9986zm-1.0103 0.23582c-0.18509-0.64537-0.25238-1.3095-0.14954-1.4759 0.10284-0.16641 0.01887-0.30256-0.18661-0.30256-0.20548 0-0.37271 0.11907-0.37163 0.26459 0.0043 0.57627 0.76398 2.9676 0.89966 2.8319 0.07955-0.0795-0.0068-0.67266-0.19188-1.318zm-0.58801-2.6757c-0.11489-0.29941-0.28456-0.46872-0.37703-0.37624-0.09247 0.0925-0.06349 0.33744 0.0644 0.54438 0.34786 0.56284 0.55117 0.4535 0.31263-0.16814zm5.1005-18.858c0.04435-0.58208-0.08063-1.0583-0.27774-1.0583-0.19711 0-0.35838 0.47625-0.35838 1.0583s0.12498 1.0583 0.27774 1.0583c0.15276 0 0.31403-0.47625 0.35838-1.0583zm-6.0396-0.7717c-0.11262-0.28142-0.19621-0.19783-0.21314 0.21313-0.01532 0.37189 0.06806 0.58025 0.18528 0.46303 0.11722-0.11723 0.12976-0.4215 0.02785-0.67616zm0.0278-1.509c-0.09143-0.4783-0.04987-0.91486 0.09236-0.97014 0.38535-0.14976 0.80308-2.3936 0.44561-2.3936-0.30813 0-1.1595 2.7236-1.1595 3.7092 0 0.28826 0.17726 0.52411 0.3939 0.52411 0.22845 0 0.32408-0.36528 0.22766-0.86964zm6.2484-0.49374c0.07979-0.41431-0.0046-0.75329-0.18745-0.75329-0.18289 0-0.33252 0.42333-0.33252 0.94074 0 1.061 0.30041 0.95265 0.51997-0.18745zm-20.276-25.448c0.20768-0.38806 0.29823-0.70556 0.20121-0.70556-0.09701 0-0.34631 0.3175-0.55399 0.70556-0.20768 0.38806-0.29823 0.70555-0.20121 0.70555 0.09701 0 0.34631-0.3175 0.55399-0.70555zm8.9958-1.0583c0.35119-0.38806 0.55914-0.70556 0.46213-0.70556-0.09701 0-0.46372 0.3175-0.81491 0.70556-0.35119 0.38806-0.55914 0.70556-0.46213 0.70556 0.09701 0 0.46372-0.3175 0.81491-0.70556zm-7.9375-0.70556c0.20768-0.38806 0.29823-0.70556 0.20121-0.70556-0.09701 0-0.34631 0.3175-0.55399 0.70556-0.20768 0.38806-0.29823 0.70556-0.20121 0.70556 0.09701 0 0.34631-0.3175 0.55399-0.70556zm8.5117-0.97014c0.43881-0.55952 0.42633-0.572-0.13319-0.13319-0.58764 0.46086-0.77452 0.75055-0.48417 0.75055 0.07326 0 0.35107-0.27781 0.61736-0.61736zm2.8222-2.8222c0.43881-0.55952 0.42633-0.572-0.13319-0.13319-0.58764 0.46086-0.77452 0.75055-0.48417 0.75055 0.07326 0 0.35107-0.27781 0.61736-0.61736zm3.8356-2.7679c0-0.09701-0.71438 0.31511-1.5875 0.91584-0.87312 0.60072-1.5875 1.1716-1.5875 1.2686 0 0.09701 0.71438-0.31511 1.5875-0.91584 0.87312-0.60072 1.5875-1.1716 1.5875-1.2686zm-5.9972-2.5014c0-0.24506-2.0636 1.2822-2.3428 1.7338-0.13609 0.2202 0.33536-0.04416 1.0477-0.58746 0.7123-0.5433 1.2951-1.0592 1.2951-1.1464zm9.0277 1.3522c-0.10238-0.16566 0.20441-0.47914 0.68176-0.69664 0.6672-0.304 0.8482-0.29553 0.78269 0.03661-0.15712 0.79658-1.1136 1.2277-1.4645 0.66003z" fill="#e4d1f0"/><path d="m123.82 203.74c-1.4552-0.1613-4.3068-0.39933-6.337-0.52895-2.0301-0.12962-3.7902-0.29691-3.9113-0.37175-0.12109-0.0748-1.4407-0.16436-2.9324-0.19895-1.4917-0.0346-2.797-0.19994-2.9005-0.36745-0.10353-0.16752-0.53606-0.3204-0.96117-0.33974-0.72475-0.033-0.71796-0.0543 0.10902-0.34151 0.55873-0.19408-0.41088-0.24688-2.6458-0.1441-9.9532 0.45775-18.109 0.55698-19.403 0.23608-1.1282-0.27982-1.2231-0.35709-0.47318-0.38542 1.1057-0.0418 7.4951-1.8728 13.702-3.9266 26.907-8.903 48.659-25.592 71.375-54.762 5.2476-6.7384 5.1699-6.7189 5.2008-1.3011 0.0896 15.675-5.3517 27.419-18.655 40.266-2.4612 2.3767-4.204 4.114-3.873 3.8605s0.75482-0.36634 0.9417-0.25084c0.18689 0.11551 0.59023-0.0404 0.89632-0.34652 0.31765-0.31765 0.83845-0.46704 1.2134-0.34805 0.39837 0.12643 0.84996-0.0295 1.1476-0.39638 0.42001-0.51764 0.41934-0.5618-5e-3 -0.30624-0.33633 0.2027-0.41462 0.16779-0.24376-0.10867 0.13844-0.22401 0.52625-0.40728 0.8618-0.40728 0.80484 0 6.3681-4.8765 9.084-7.9627 6.0803-6.9092 9.3437-13.274 10.847-21.156 0.80442-4.2184 0.80442-4.2184 1.0992-1.3961 0.91884 8.7968 0.0502 24.318-1.4997 26.797-0.12629 0.20197-0.27791 0.67783-0.33693 1.0575-0.059 0.37963-0.2421 0.77651-0.40685 0.88194-0.16476 0.10544-0.41128 0.7067-0.54783 1.3361-0.13655 0.62944-0.51368 1.2993-0.83807 1.4886s-0.45778 0.34898-0.29644 0.35488c0.34515 0.0126-0.96754 2.2849-2.0261 3.5072-0.40518 0.46785-0.51765 0.72357-0.24995 0.56826 0.33302-0.1932 0.43515-0.12761 0.32338 0.2077-0.0898 0.26954-0.33454 0.49008-0.54376 0.49008-0.20923 0-1.5116 1.1493-2.8942 2.554-3.5046 3.5607-10.913 8.1786-13.463 8.3918-0.50672 0.0424-1.2211 0.26354-1.5875 0.4915-0.67518 0.42007-0.0667 0.32705 1.6269-0.24871 0.38662-0.13144 0.42773-0.0692 0.1526 0.23096-0.58156 0.6345-2.5725 1.117-2.8378 0.68766-0.12388-0.20044-0.32446-0.22844-0.44573-0.0622-0.56356 0.77255-2.1099 1.2598-4.4119 1.3903-2.632 0.14918-5.5624 0.41553-5.8627 0.53288-0.92463 0.36131-15.322 0.62306-17.992 0.32711zm20.472-11.957c0.86337-0.52505 0.96985-0.70504 0.51937-0.8779-0.34863-0.13378-0.47812-0.0742-0.33655 0.15488 0.12656 0.20478 0.0157 0.3231-0.24626 0.26294-0.26201-0.0602-0.5025 0.0305-0.53444 0.20154-0.0319 0.17102-0.27006 0.44533-0.52917 0.60957-0.96206 0.60983 0.0815 0.2848 1.127-0.35103zm10.75-7.0406c-0.10845-0.10846-0.54997 0.17031-0.98114 0.61949-0.78395 0.81668-0.78395 0.81668 0.19719 0.19719 0.53964-0.34071 0.89241-0.70822 0.78395-0.81668zm-99.485 16.293c-21.476-2.3831-27.248-16.155-21.634-51.619 0.41696-2.634 0.41696-2.634 0.87087-0.63542 0.76903 3.3861 5.2065 11.606 9.7638 18.086 2.117 3.0103 2.7935 3.7292 1.4937 1.5875-6.0852-10.027-11.8-28.722-12.713-41.587-0.14061-1.9815-0.14061-1.9815 0.3891 0.31151 8.2001 35.498 37.477 60.912 69.984 60.749 7.0831-0.0354 7.2885-0.41526-1.7639 3.2626-8.5501 3.4738-11.859 4.6021-20.108 6.8574-8.0953 2.2131-20.525 3.6257-26.282 2.9869zm104.78-2.1413c0.19403-0.19668 1.6228-1.1979 3.175-2.225s3.9732-3.0429 5.3799-4.4797c2.7187-2.7769 3.3454-3.0735 1.3508-0.63926-1.5875 1.9373-5.4949 5.0729-8.1417 6.5335-1.1642 0.64241-1.9579 1.0071-1.7639 0.81041zm-12.158-36.984c-7e-3 -0.20373 0.15219-0.53529 0.35371-0.73681 1.1019-1.1019 2.3356-8.8739 2.6801-16.884 0.41585-9.6687-2.4918-27.397-5.0503-30.792-3.6953-4.9036-15.681-7.3536-39.448-8.0635-5.8109-0.17358-8.2177-0.34751-7.0556-0.50988 4.7695-0.66633 13.94-4.092 29.633-11.07 26.614-11.833 43.233-5.496 44.169 16.843 0.60755 14.499-4.3007 25.52-20.224 45.41-4.3982 5.4937-5.0439 6.2346-5.0587 5.8032zm-94.823-5.5386c-5.2901-7.1416-13.14-20.227-13.14-21.904 0-0.32194-0.15875-0.58535-0.35278-0.58535s-0.35278-0.14842-0.35278-0.32981c0-0.1814-0.18654-0.77671-0.41454-1.3229s-0.45753-1.3623-0.51008-1.8136c-0.05255-0.45126-0.42347-1.3763-0.82427-2.0556-0.4008-0.67929-0.64492-1.3707-0.5425-1.5364 0.10242-0.16573 0.01406-0.40772-0.19636-0.53777-0.21042-0.13005-0.29737-0.45852-0.19322-0.72993 0.11663-0.30394-0.04351-0.49556-0.41692-0.49889-0.46316-4e-3 -0.49604-0.0753-0.13925-0.30151 0.37724-0.23918 0.35544-0.40771-0.11339-0.87654-0.31924-0.31924-0.48413-0.58043-0.36643-0.58043s0.03383-0.33666-0.18639-0.74813c-0.2814-0.52581-0.28509-0.67687-0.01241-0.50835 0.21874 0.13519 0.38797-1.2e-4 0.38797-0.3102 0-0.3025-0.15377-0.54999-0.34171-0.54999-0.18794 0-0.24034-0.26417-0.11644-0.58704 0.16462-0.42899 0.09801-0.50839-0.24741-0.2949-0.34542 0.21348-0.41203 0.13408-0.24741-0.29491 0.1239-0.32287 0.10552-0.58704-0.04084-0.58704-0.14636 0-0.26611-0.30584-0.26611-0.67965s0.12473-0.60257 0.27718-0.50835c0.15245 0.0942 0.27718-0.0762 0.27718-0.37868 0-0.30249-0.27781-0.56252-0.61736-0.57784-0.33955-0.0153-0.4325-0.10339-0.20656-0.19573 0.2895-0.1183 0.31536-0.50064 0.08758-1.2949-0.20884-0.72818-0.19816-1.1687 0.03017-1.2448 0.19436-0.0648 0.35339-0.59018 0.35339-1.1676 0-0.57736-0.14524-0.95999-0.32276-0.85028-0.1816 0.11224-0.26354-0.38008-0.18736-1.1257 0.07447-0.72885 0.22217-2.1983 0.32823-3.2655 0.31513-3.1709 0.47109-3.9562 1.2106-6.0963 0.38758-1.1216 0.62903-2.2365 0.53656-2.4775-0.22271-0.58038 1.876-3.8685 2.3014-3.6056 0.18208 0.11253 0.68643-0.27606 1.1208-0.86354 0.43434-0.58748 0.98861-1.0681 1.2317-1.0681s0.55528-0.18328 0.69372-0.40728c0.16577-0.26822 0.08253-0.31873-0.24376-0.14793-0.70843 0.37083 1.0114-1.1248 3.3598-2.9218 1.1046-0.8452 1.928-1.617 1.8298-1.7152-0.09814-0.09814-0.9412 0.43157-1.8735 1.1771-0.93227 0.74556-1.4165 1.0278-1.0761 0.62729 0.76772-0.90333 4.1514-3.3384 3.483-2.5065-0.69956 0.87063-0.01557 0.73999 1.3323-0.25446 0.6389-0.47136 2.1841-1.2916 3.4338-1.8227 1.601-0.68044 2.1378-1.0593 1.8173-1.2828-0.29853-0.20812-0.18315-0.24069 0.33577-0.09481 0.43483 0.12225 0.99045 0.09402 1.2347-0.06273 0.96215-0.61742 3.3811-1.0687 3.2001-0.59703-0.16414 0.42775 0.06638 0.80974 1.3449 2.2286 0.542 0.6015 0.4282 0.69965-2.099 1.8103-8.8851 3.9047-14.978 10.559-17.526 19.141-0.84114 2.8324-0.57734 3.134 0.31959 0.36538 3.539-10.924 20.498-21.677 32.978-20.909 0.98806 0.06078-1.1221 0.59817-2.4943 0.63523-0.71615 0.01934-1.4028 0.19812-1.5259 0.3973-0.1231 0.19917-0.48965 0.31824-0.81457 0.26458-0.47815-0.07896-0.57928 0.17144-0.53054 1.3136 0.03312 0.77611-0.01144 1.1684-0.09902 0.87185-0.08758-0.29659-0.466-0.73083-0.84092-0.96498-0.58222-0.3636-0.6491-0.34082-0.45839 0.15616 0.14974 0.39021 0.08734 0.49786-0.18944 0.3268-0.227-0.14029-0.41273-0.11342-0.41273 0.05972 0 0.61201 0.47089 0.77356 0.99436 0.34114 0.46616-0.38508 0.47219-0.34491 0.05004 0.33302-0.26404 0.42401-0.63157 0.6773-0.81674 0.56285-0.18517-0.11444-0.22543-0.02808-0.08947 0.19192 0.13597 0.22 0.09243 0.68921-0.09675 1.0427-0.73911 1.381 1.2601 4.4186 2.3348 3.5474 0.49574-0.40188 0.53492-0.39427 0.26583 0.05162-0.551 0.91302-0.44673 1.7701 0.21535 1.7701 0.34256 0 0.71761 0.29864 0.83346 0.66365 0.23016 0.72515 1.6008 2.4338 1.6008 1.9956 0-0.14902 0.37252-0.0269 0.82781 0.27146 0.77463 0.50756 1.0976 0.44039 5.0271-1.0455 7.7309-2.9233 20.054-6.2003 30.442-8.0954 2.6408-0.48175 5.9921-1.1034 7.4473-1.3815 1.4552-0.27806 4.154-0.74917 5.9972-1.0469 1.8433-0.29775 4.7801-0.77271 6.5264-1.0555 1.7462-0.28275 5.3896-1.1439 8.0962-1.9137s5.0373-1.3278 5.1791-1.2402c0.14182 0.08765 0.34132 0.02432 0.44333-0.14074 0.10201-0.16506 0.86704-0.31933 1.7001-0.34284 1.4577-0.04113 1.402 0.0017-1.484 1.1408-1.6492 0.65092-7.6817 3.1998-13.406 5.6642-26.687 11.49-29.795 12.312-52.675 13.928-2.6807 0.18932-4.9826 0.31834-5.1153 0.2867-1.6465-0.39257-6.2273 0.63527-8.5707 1.9231-13.436 7.3838-16.353 28.123-7.0361 50.018 1.3442 3.1589 1.2409 3.1088-1.6572-0.8037zm-15.435-58.324c0.52061-0.88836 0.88933-1.6724 0.81937-1.7424-0.15664-0.15664-1.5735 1.8936-1.8937 2.7402-0.43231 1.1431 0.12058 0.62958 1.0743-0.99783zm27.408-8.6245c-0.19543-0.5283-0.39152-0.67266-0.55481-0.40845-0.1389 0.22475-0.04599 0.63276 0.20649 0.90668 0.60683 0.65839 0.71758 0.49997 0.34833-0.49823zm-31.287 24.351c0.11992-0.19403 0.28804-0.35278 0.3736-0.35278 0.08556 0 0.15557 0.15875 0.15557 0.35278 0 0.19402-0.16812 0.35277-0.3736 0.35277-0.20548 0-0.27548-0.15875-0.15557-0.35277zm32.877-19.628c-0.37671-0.37672-0.29042-0.90269 0.10774-0.65662 0.19403 0.11992 0.36531-0.06915 0.38063-0.42015 0.01532-0.351 0.10593-0.44572 0.20136-0.2105 0.21843 0.53841-0.35966 1.6173-0.68972 1.2873zm-4.4784-11.555c0-0.07626 0.24637-0.23319 0.54749-0.34874 0.31395-0.12047 0.45555-0.06133 0.33196 0.13865-0.20717 0.33521-0.87945 0.49581-0.87945 0.21009z" fill="#fbc9b5"/><path d="m126.62 203.41c0.34503-0.23192-0.73563-0.31914-3.3142-0.26749-2.8323 0.0567-3.9504-0.0476-4.3043-0.40147-0.27769-0.27768-0.47812-0.31966-0.47812-0.10014 0 0.20789-0.48562 0.37798-1.0792 0.37798-0.59354 0-1.0051-0.11906-0.91455-0.26458 0.0905-0.14552-1.446-0.21354-3.4146-0.15116-3.8276 0.1213-4.5886-0.21904-1.0023-0.44824 1.184-0.0757 2.2819-0.21734 2.4396-0.31483 0.15773-0.0975 1.625-0.36047 3.2606-0.58442 1.6356-0.22394 3.2186-0.528 3.5178-0.67567 0.29918-0.14768 1.4965-0.46465 2.6606-0.70438 13.538-2.7878 29.891-11.972 40.585-22.794 3.3936-3.434 3.9053-3.833 3.9666-3.0923 0.0387 0.46771 0.56507 1.5694 1.1697 2.4482 0.87129 1.2664 1.0074 1.6827 0.65597 2.007-0.24383 0.22507-0.35733 0.25046-0.25221 0.0564 0.32103-0.59259-0.66238-1.2882-1.091-0.77174-0.25274 0.30454-0.11416 0.91723 0.46662 2.0629 0.60538 1.1942 0.72149 1.7344 0.43452 2.0214-0.21539 0.21539-0.26481 0.39162-0.10982 0.39162 0.15498 0 0.72668-0.47625 1.2704-1.0583 0.54375-0.58208 1.2028-1.0559 1.4645-1.0529 0.28804 3e-3 0.3366 0.10768 0.12304 0.26458-0.19402 0.14255-0.38835 0.41793-0.43183 0.61196-0.43051 1.9211-2.5495 5.4389-5.2756 8.7583-0.45043 0.54846-0.80643 1.1835-0.79111 1.4111 0.0194 0.28809 0.0819 0.27986 0.20578-0.0271 0.10294-0.25511 0.79748-0.4387 1.6478-0.43557 0.93972 3e-3 1.3 0.11311 0.9988 0.30403-0.25911 0.16424-0.47342 0.43962-0.47625 0.61195-3e-3 0.17234-0.15982 0.26972-0.34887 0.21641-0.18905-0.0533-0.25306 0.0498-0.14225 0.22904 0.26454 0.42804-2.2067 2.5918-2.6483 2.3189-0.18722-0.11571-0.29678-0.02-0.24346 0.21272 0.0533 0.2327-0.10162 0.49589-0.34428 0.58487-0.29556 0.10836-0.36312-0.0418-0.20463-0.45475 0.16852-0.43917 0.10947-0.53796-0.20529-0.34343-0.28558 0.1765-0.23717-0.12275 0.13685-0.84604 0.69153-1.3372 0.18016-1.1421-2.7286 1.0415-1.4532 1.0909-2.3818 2.244-1.2376 1.5368 0.80252-0.49598 1.727-0.39921 1.513 0.15838-0.16623 0.43321-0.10783 0.44474 0.34575 0.0683 0.30017-0.24912 0.63488-0.36383 0.74379-0.25492 0.25094 0.25093-4.6796 3.0166-5.8595 3.2868-0.48507 0.11107-1.6258 0.50629-2.5348 0.87827-1.9161 0.78404-2.0513 0.80398-2.0513 0.30274 0-0.20548 0.11906-0.30516 0.26458-0.22151 0.14552 0.0837 0.57017-0.1451 0.94367-0.50834 0.85918-0.8356 0.66867-0.83-1.0571 0.031-0.76225 0.38033-1.1557 0.69783-0.87439 0.70556 1.0965 0.0301-0.24505 0.63681-2.2736 1.0282-1.4112 0.27227-2.1546 0.28881-2.2343 0.0497-0.0657-0.19706-0.25997-0.3583-0.43174-0.3583s-0.22093 0.23813-0.10925 0.52917c0.1485 0.38697-0.0441 0.52916-0.71663 0.52916-0.50583 0-0.91969 0.16434-0.91969 0.36519 0 0.2467-0.23062 0.24177-0.71078-0.0152-0.55888-0.2991-0.75528-0.26449-0.91892 0.16195-0.11446 0.2983-0.32397 0.47076-0.46556 0.38325-0.14159-0.0875-1.3849-0.0386-2.7629 0.1086-1.378 0.14724-2.4268 0.14037-2.3306-0.0153 0.0962-0.15563-0.082-0.28296-0.39593-0.28296-0.31394 0-0.49699 0.11943-0.40678 0.2654 0.0902 0.14597-2.4007 0.3114-5.5354 0.36763-3.787 0.0679-5.5277-0.0132-5.1875-0.24191zm22.33-2.3886c-0.24254-0.0979-0.63941-0.0979-0.88195 0-0.24253 0.0979-0.0441 0.17794 0.44097 0.17794s0.68351-0.0801 0.44098-0.17794zm1.7639-0.35277c-0.24254-0.0979-0.63941-0.0979-0.88195 0-0.24253 0.0979-0.0441 0.17793 0.44097 0.17793s0.68351-0.0801 0.44098-0.17793zm-63.588 1.0028c-2.2931-0.13354-2.2931-0.13354 0.17639-0.82158 13.428-3.7412 25.995-8.8797 35.589-14.552 1.4783-0.87401 2.6878-1.4778 2.6876-1.3418-3.7e-4 0.42781 11.35-0.20441 14.599-0.81314 3.8216-0.7161 3.8286-0.70883 1.5117 1.5637-7.7322 7.5839-23.185 14.041-36.769 15.363-7.7209 0.75151-12.468 0.91209-17.794 0.60191zm-31.574-0.6435c-21.476-2.3831-27.248-16.155-21.634-51.619 0.41696-2.634 0.41696-2.634 0.87087-0.63542 0.76903 3.3861 5.2065 11.606 9.7638 18.086 2.117 3.0103 2.7935 3.7292 1.4937 1.5875-6.0852-10.027-11.8-28.722-12.713-41.587-0.14061-1.9815-0.14061-1.9815 0.3891 0.31151 8.2001 35.498 37.477 60.912 69.984 60.749 7.0831-0.0354 7.2885-0.41526-1.7639 3.2626-8.5501 3.4738-11.859 4.6021-20.108 6.8574-8.0953 2.2131-20.525 3.6257-26.282 2.9869zm106.36-3.0535c0-0.081 0.91281-0.75083 2.0285-1.4885 1.1157-0.73769 3.2191-2.4626 4.6743-3.8332 2.6458-2.4919 2.6458-2.4919 0.35278-0.0884-2.1851 2.2904-7.0556 6.0249-7.0556 5.41zm9.2604-9.852c0.0485-0.23792 0.28809-0.64759 0.53241-0.91039 0.24432-0.26279 0.33885-0.64829 0.21007-0.85665-0.13852-0.22414-0.0683-0.27638 0.17186-0.12793 0.29755 0.1839 0.26257 0.52825-0.13094 1.2892-0.55319 1.0697-0.93879 1.3679-0.7834 0.60574zm-44.185-4.2631c0-0.0822 0.67469-0.59442 1.4993-1.1383 0.82462-0.54385 1.3131-0.76338 1.0855-0.48785-0.43769 0.52982-2.5848 1.8806-2.5848 1.6261zm8.1139-5.8544c1.2352-1.0731 1.7686-1.324 1.7585-0.82704-0.0111 0.54083-0.67069 1.2936-0.9174 1.0469-0.14058-0.14058-0.66515-6e-3 -1.1657 0.2986-0.59534 0.36253-0.48308 0.18323 0.32462-0.51844zm4.0569-3.2083c0.35119-0.38806 0.7179-0.70556 0.81491-0.70556 0.097 0-0.11094 0.3175-0.46213 0.70556-0.35118 0.38805-0.71789 0.70555-0.81491 0.70555-0.097 0 0.11095-0.3175 0.46213-0.70555zm2.2931-1.8681c0-0.0899 0.74666-0.77537 1.6593-1.5232 0.91259-0.7478 1.5454-1.1754 1.4062-0.95021-0.29655 0.47983-3.0655 2.7139-3.0655 2.4734zm28.023-1.3951c0.54395-0.7276 1.0551-1.3229 1.1359-1.3229 0.31117 0-0.55587 1.2756-1.3215 1.9442-0.65799 0.57462-0.6244 0.46216 0.18558-0.62131zm-21.307-9.6308c-7e-3 -0.20373 0.15219-0.53529 0.35371-0.73681 1.1019-1.1019 2.3356-8.8739 2.6801-16.884 0.41585-9.6687-2.4918-27.397-5.0503-30.792-3.6953-4.9036-15.681-7.3536-39.448-8.0635-5.8109-0.17358-8.2177-0.34751-7.0556-0.50988 4.7695-0.66633 13.94-4.092 29.633-11.07 26.614-11.833 43.233-5.496 44.169 16.843 0.60755 14.499-4.3007 25.52-20.224 45.41-4.3982 5.4937-5.0439 6.2346-5.0587 5.8032zm-94.823-5.5386c-5.2901-7.1416-13.14-20.227-13.14-21.904 0-0.32194-0.15875-0.58535-0.35278-0.58535s-0.35278-0.14842-0.35278-0.32981c0-0.1814-0.18654-0.77671-0.41454-1.3229s-0.45753-1.3623-0.51008-1.8136c-0.05255-0.45126-0.42347-1.3763-0.82427-2.0556-0.4008-0.67929-0.64492-1.3707-0.5425-1.5364 0.10242-0.16573 0.01406-0.40772-0.19636-0.53777-0.21042-0.13005-0.29737-0.45852-0.19322-0.72993 0.11663-0.30394-0.04351-0.49556-0.41692-0.49889-0.46316-4e-3 -0.49604-0.0753-0.13925-0.30151 0.37724-0.23918 0.35544-0.40771-0.11339-0.87654-0.31924-0.31924-0.48413-0.58043-0.36643-0.58043s0.03383-0.33666-0.18639-0.74813c-0.2814-0.52581-0.28509-0.67687-0.01241-0.50835 0.21874 0.13519 0.38797-1.2e-4 0.38797-0.3102 0-0.3025-0.15377-0.54999-0.34171-0.54999-0.18794 0-0.24034-0.26417-0.11644-0.58704 0.16462-0.42899 0.09801-0.50839-0.24741-0.2949-0.34542 0.21348-0.41203 0.13408-0.24741-0.29491 0.1239-0.32287 0.10552-0.58704-0.04084-0.58704-0.14636 0-0.26611-0.30584-0.26611-0.67965s0.12473-0.60257 0.27718-0.50835c0.15245 0.0942 0.27718-0.0762 0.27718-0.37868 0-0.30249-0.27781-0.56252-0.61736-0.57784-0.33955-0.0153-0.4325-0.10339-0.20656-0.19573 0.2895-0.1183 0.31536-0.50064 0.08758-1.2949-0.20884-0.72818-0.19816-1.1687 0.03017-1.2448 0.19436-0.0648 0.35339-0.59018 0.35339-1.1676 0-0.57736-0.14524-0.95999-0.32276-0.85028-0.1816 0.11224-0.26354-0.38008-0.18736-1.1257 0.07447-0.72885 0.22217-2.1983 0.32823-3.2655 0.31513-3.1709 0.47109-3.9562 1.2106-6.0963 0.38758-1.1216 0.62903-2.2365 0.53656-2.4775-0.22271-0.58038 1.876-3.8685 2.3014-3.6056 0.18208 0.11253 0.68643-0.27606 1.1208-0.86354 0.43434-0.58748 0.98861-1.0681 1.2317-1.0681s0.55528-0.18328 0.69372-0.40728c0.16577-0.26822 0.08253-0.31873-0.24376-0.14793-0.70843 0.37083 1.0114-1.1248 3.3598-2.9218 1.1046-0.8452 1.928-1.617 1.8298-1.7152-0.09814-0.09814-0.9412 0.43157-1.8735 1.1771-0.93227 0.74556-1.4165 1.0278-1.0761 0.62729 0.76772-0.90333 4.1514-3.3384 3.483-2.5065-0.69956 0.87063-0.01557 0.73999 1.3323-0.25446 0.6389-0.47136 2.1841-1.2916 3.4338-1.8227 1.601-0.68044 2.1378-1.0593 1.8173-1.2828-0.29853-0.20812-0.18315-0.24069 0.33577-0.09481 0.43483 0.12225 0.99045 0.09402 1.2347-0.06273 0.96215-0.61742 3.3811-1.0687 3.2001-0.59703-0.16414 0.42775 0.06638 0.80974 1.3449 2.2286 0.542 0.6015 0.4282 0.69965-2.099 1.8103-8.8851 3.9047-14.978 10.559-17.526 19.141-0.84114 2.8324-0.57734 3.134 0.31959 0.36538 3.539-10.924 20.498-21.677 32.978-20.909 0.98806 0.06078-1.1221 0.59817-2.4943 0.63523-0.71615 0.01934-1.4028 0.19812-1.5259 0.3973-0.1231 0.19917-0.48965 0.31824-0.81457 0.26458-0.47815-0.07896-0.57928 0.17144-0.53054 1.3136 0.03312 0.77611-0.01144 1.1684-0.09902 0.87185-0.08758-0.29659-0.466-0.73083-0.84092-0.96498-0.58222-0.3636-0.6491-0.34082-0.45839 0.15616 0.14974 0.39021 0.08734 0.49786-0.18944 0.3268-0.227-0.14029-0.41273-0.11342-0.41273 0.05972 0 0.61201 0.47089 0.77356 0.99436 0.34114 0.46616-0.38508 0.47219-0.34491 0.05004 0.33302-0.26404 0.42401-0.63157 0.6773-0.81674 0.56285-0.18517-0.11444-0.22543-0.02808-0.08947 0.19192 0.13597 0.22 0.09243 0.68921-0.09675 1.0427-0.73911 1.381 1.2601 4.4186 2.3348 3.5474 0.49574-0.40188 0.53492-0.39427 0.26583 0.05162-0.551 0.91302-0.44673 1.7701 0.21535 1.7701 0.34256 0 0.71761 0.29864 0.83346 0.66365 0.23016 0.72515 1.6008 2.4338 1.6008 1.9956 0-0.14902 0.37252-0.0269 0.82781 0.27146 0.77463 0.50756 1.0976 0.44039 5.0271-1.0455 7.7309-2.9233 20.054-6.2003 30.442-8.0954 2.6408-0.48175 5.9921-1.1034 7.4473-1.3815 1.4552-0.27806 4.154-0.74917 5.9972-1.0469 1.8433-0.29775 4.7801-0.77271 6.5264-1.0555 1.7462-0.28275 5.3896-1.1439 8.0962-1.9137s5.0373-1.3278 5.1791-1.2402c0.14182 0.08765 0.34132 0.02432 0.44333-0.14074 0.10201-0.16506 0.86704-0.31933 1.7001-0.34284 1.4577-0.04113 1.402 0.0017-1.484 1.1408-1.6492 0.65092-7.6817 3.1998-13.406 5.6642-26.687 11.49-29.795 12.312-52.675 13.928-2.6807 0.18932-4.9826 0.31834-5.1153 0.2867-1.6465-0.39257-6.2273 0.63527-8.5707 1.9231-13.436 7.3838-16.353 28.123-7.0361 50.018 1.3442 3.1589 1.2409 3.1088-1.6572-0.8037zm-15.435-58.324c0.52061-0.88836 0.88933-1.6724 0.81937-1.7424-0.15664-0.15664-1.5735 1.8936-1.8937 2.7402-0.43231 1.1431 0.12058 0.62958 1.0743-0.99783zm27.408-8.6245c-0.19543-0.5283-0.39152-0.67266-0.55481-0.40845-0.1389 0.22475-0.04599 0.63276 0.20649 0.90668 0.60683 0.65839 0.71758 0.49997 0.34833-0.49823zm-31.287 24.351c0.11992-0.19403 0.28804-0.35278 0.3736-0.35278 0.08556 0 0.15557 0.15875 0.15557 0.35278 0 0.19402-0.16812 0.35277-0.3736 0.35277-0.20548 0-0.27548-0.15875-0.15557-0.35277zm32.877-19.628c-0.37671-0.37672-0.29042-0.90269 0.10774-0.65662 0.19403 0.11992 0.36531-0.06915 0.38063-0.42015 0.01532-0.351 0.10593-0.44572 0.20136-0.2105 0.21843 0.53841-0.35966 1.6173-0.68972 1.2873zm-4.4784-11.555c0-0.07626 0.24637-0.23319 0.54749-0.34874 0.31395-0.12047 0.45555-0.06133 0.33196 0.13865-0.20717 0.33521-0.87945 0.49581-0.87945 0.21009z" fill="#d0b3e7"/><path d="m126.62 203.41c0.34503-0.23192-0.73563-0.31914-3.3142-0.26749-2.8323 0.0567-3.9504-0.0476-4.3043-0.40147-0.27769-0.27768-0.47812-0.31966-0.47812-0.10014 0 0.20789-0.48562 0.37798-1.0792 0.37798-0.59354 0-1.0051-0.11906-0.91455-0.26458 0.0905-0.14552-1.446-0.21354-3.4146-0.15116-3.8276 0.1213-4.5886-0.21904-1.0023-0.44824 1.184-0.0757 2.2819-0.21734 2.4396-0.31483 0.15773-0.0975 1.625-0.36047 3.2606-0.58442 1.6356-0.22394 3.2186-0.528 3.5178-0.67567 0.29918-0.14768 1.4965-0.46465 2.6606-0.70438 13.538-2.7878 29.891-11.972 40.585-22.794 3.3936-3.434 3.9053-3.833 3.9666-3.0923 0.0387 0.46771 0.56507 1.5694 1.1697 2.4482 0.87129 1.2664 1.0074 1.6827 0.65597 2.007-0.24383 0.22507-0.35733 0.25046-0.25221 0.0564 0.32103-0.59259-0.66238-1.2882-1.091-0.77174-0.25274 0.30454-0.11416 0.91723 0.46662 2.0629 0.60538 1.1942 0.72149 1.7344 0.43452 2.0214-0.21539 0.21539-0.26481 0.39162-0.10982 0.39162 0.15498 0 0.72668-0.47625 1.2704-1.0583 0.54375-0.58208 1.2028-1.0559 1.4645-1.0529 0.28804 3e-3 0.3366 0.10768 0.12304 0.26458-0.19402 0.14255-0.38835 0.41793-0.43183 0.61196-0.43051 1.9211-2.5495 5.4389-5.2756 8.7583-0.45043 0.54846-0.80643 1.1835-0.79111 1.4111 0.0194 0.28809 0.0819 0.27986 0.20578-0.0271 0.10294-0.25511 0.79748-0.4387 1.6478-0.43557 0.93972 3e-3 1.3 0.11311 0.9988 0.30403-0.25911 0.16424-0.47342 0.43962-0.47625 0.61195-3e-3 0.17234-0.15982 0.26972-0.34887 0.21641-0.18905-0.0533-0.25306 0.0498-0.14225 0.22904 0.26454 0.42804-2.2067 2.5918-2.6483 2.3189-0.18722-0.11571-0.29678-0.02-0.24346 0.21272 0.0533 0.2327-0.10162 0.49589-0.34428 0.58487-0.29556 0.10836-0.36312-0.0418-0.20463-0.45475 0.16852-0.43917 0.10947-0.53796-0.20529-0.34343-0.28558 0.1765-0.23717-0.12275 0.13685-0.84604 0.69153-1.3372 0.18016-1.1421-2.7286 1.0415-1.4532 1.0909-2.3818 2.244-1.2376 1.5368 0.80252-0.49598 1.727-0.39921 1.513 0.15838-0.16623 0.43321-0.10783 0.44474 0.34575 0.0683 0.30017-0.24912 0.63488-0.36383 0.74379-0.25492 0.25094 0.25093-4.6796 3.0166-5.8595 3.2868-0.48507 0.11107-1.6258 0.50629-2.5348 0.87827-1.9161 0.78404-2.0513 0.80398-2.0513 0.30274 0-0.20548 0.11906-0.30516 0.26458-0.22151 0.14552 0.0837 0.57017-0.1451 0.94367-0.50834 0.85918-0.8356 0.66867-0.83-1.0571 0.031-0.76225 0.38033-1.1557 0.69783-0.87439 0.70556 1.0965 0.0301-0.24505 0.63681-2.2736 1.0282-1.4112 0.27227-2.1546 0.28881-2.2343 0.0497-0.0657-0.19706-0.25997-0.3583-0.43174-0.3583s-0.22093 0.23813-0.10925 0.52917c0.1485 0.38697-0.0441 0.52916-0.71663 0.52916-0.50583 0-0.91969 0.16434-0.91969 0.36519 0 0.2467-0.23062 0.24177-0.71078-0.0152-0.55888-0.2991-0.75528-0.26449-0.91892 0.16195-0.11446 0.2983-0.32397 0.47076-0.46556 0.38325-0.14159-0.0875-1.3849-0.0386-2.7629 0.1086-1.378 0.14724-2.4268 0.14037-2.3306-0.0153 0.0962-0.15563-0.082-0.28296-0.39593-0.28296-0.31394 0-0.49699 0.11943-0.40678 0.2654 0.0902 0.14597-2.4007 0.3114-5.5354 0.36763-3.787 0.0679-5.5277-0.0132-5.1875-0.24191zm22.33-2.3886c-0.24254-0.0979-0.63941-0.0979-0.88195 0-0.24253 0.0979-0.0441 0.17794 0.44097 0.17794s0.68351-0.0801 0.44098-0.17794zm1.7639-0.35277c-0.24254-0.0979-0.63941-0.0979-0.88195 0-0.24253 0.0979-0.0441 0.17793 0.44097 0.17793s0.68351-0.0801 0.44098-0.17793zm-63.588 1.0028c-2.2931-0.13354-2.2931-0.13354 0.17639-0.82158 13.428-3.7412 25.995-8.8797 35.589-14.552 1.4783-0.87401 2.6878-1.4778 2.6876-1.3418-3.7e-4 0.42781 11.35-0.20441 14.599-0.81314 3.8216-0.7161 3.8286-0.70883 1.5117 1.5637-7.7322 7.5839-23.185 14.041-36.769 15.363-7.7209 0.75151-12.468 0.91209-17.794 0.60191zm-31.574-0.6435c-21.476-2.3831-27.248-16.155-21.634-51.619 0.41696-2.634 0.41696-2.634 0.87087-0.63542 0.76903 3.3861 5.2065 11.606 9.7638 18.086 2.117 3.0103 2.7935 3.7292 1.4937 1.5875-6.0852-10.027-11.8-28.722-12.713-41.587-0.14061-1.9815-0.14061-1.9815 0.3891 0.31151 8.2001 35.498 37.477 60.912 69.984 60.749 7.0831-0.0354 7.2885-0.41526-1.7639 3.2626-8.5501 3.4738-11.859 4.6021-20.108 6.8574-8.0953 2.2131-20.525 3.6257-26.282 2.9869zm106.36-3.0535c0-0.081 0.91281-0.75083 2.0285-1.4885 1.1157-0.73769 3.2191-2.4626 4.6743-3.8332 2.6458-2.4919 2.6458-2.4919 0.35278-0.0884-2.1851 2.2904-7.0556 6.0249-7.0556 5.41zm9.2604-9.852c0.0485-0.23792 0.28809-0.64759 0.53241-0.91039 0.24432-0.26279 0.33885-0.64829 0.21007-0.85665-0.13852-0.22414-0.0683-0.27638 0.17186-0.12793 0.29755 0.1839 0.26257 0.52825-0.13094 1.2892-0.55319 1.0697-0.93879 1.3679-0.7834 0.60574zm-44.185-4.2631c0-0.0822 0.67469-0.59442 1.4993-1.1383 0.82462-0.54385 1.3131-0.76338 1.0855-0.48785-0.43769 0.52982-2.5848 1.8806-2.5848 1.6261zm8.1139-5.8544c1.2352-1.0731 1.7686-1.324 1.7585-0.82704-0.0111 0.54083-0.67069 1.2936-0.9174 1.0469-0.14058-0.14058-0.66515-6e-3 -1.1657 0.2986-0.59534 0.36253-0.48308 0.18323 0.32462-0.51844zm4.0569-3.2083c0.35119-0.38806 0.7179-0.70556 0.81491-0.70556 0.097 0-0.11094 0.3175-0.46213 0.70556-0.35118 0.38805-0.71789 0.70555-0.81491 0.70555-0.097 0 0.11095-0.3175 0.46213-0.70555zm2.2931-1.8681c0-0.0899 0.74666-0.77537 1.6593-1.5232 0.91259-0.7478 1.5454-1.1754 1.4062-0.95021-0.29655 0.47983-3.0655 2.7139-3.0655 2.4734zm28.023-1.3951c0.54395-0.7276 1.0551-1.3229 1.1359-1.3229 0.31117 0-0.55587 1.2756-1.3215 1.9442-0.65799 0.57462-0.6244 0.46216 0.18558-0.62131zm-20.469-10.921c0.34165-0.52505 0.5036-1.1449 0.35988-1.3774-0.15752-0.25487-0.11202-0.33053 0.11456-0.1905 0.51295 0.31702 2.6326-5.2045 2.6882-7.0024 0.024-0.77611 0.2435-1.6223 0.48782-1.8805 0.24431-0.25818 0.358-0.60891 0.25263-0.7794s-0.0393-0.59426 0.14687-0.9417c0.94438-1.7627 1.3444-12.227 0.732-19.146-1.9099-21.58-6.0203-25.582-26.27-25.582-9.0782 0-18.874 0.68691-18.874 1.3235 0 0.15855 0.75407 0.19654 1.6757 0.0844 0.92163-0.11211 2.3901-0.0556 3.2632 0.12559 1.4227 0.29524 1.2305 0.33345-1.8521 0.36809-2.8394 0.0319-3.4396-0.0537-3.4396-0.49052 0-0.59907-0.55243-0.70956-0.88195-0.17639-0.12754 0.20637-1.9297 0.33674-4.3424 0.31413-3.084-0.0289-3.767-0.10968-2.7078-0.32025 4.4762-0.88985 11.462-3.4822 24.623-9.1369 23.568-10.126 38.069-7.8296 44.362 7.0263 0.45206 1.0672 0.98904 2.0593 1.1933 2.2049 0.24879 0.17726 0.21338 0.36646-0.10728 0.57326-0.3109 0.2005-0.34967 0.38839-0.11064 0.53611 0.20239 0.12509 0.37911 0.50212 0.3927 0.83785 0.0136 0.33573 0.0902 1.0867 0.17017 1.6688 0.08 0.58208 0.1608 1.3758 0.17954 1.7639 0.0271 0.56209 0.0991 0.60281 0.35381 0.20026 0.20366-0.32184 0.27228 0.31859 0.18899 1.7639-0.1 1.7347-0.0629 1.9784 0.15757 1.0345 0.23887-1.0229 0.29823-1.0834 0.346-0.35278 0.0918 1.4037 0.98996 2.4208 1.1936 1.3516 0.0862-0.45236 0.17826-0.0976 0.20469 0.78843 0.0415 1.3902-0.12518 2.6726-0.79935 6.1516-0.48278 2.4913-1.9976 7.2037-3.1182 9.7-0.47904 1.0672-1.2512 2.811-1.7159 3.8753-1.4688 3.364-8.0433 12.824-14.959 21.525-3.2481 4.0865-5.241 6.2077-3.909 4.1606zm-95.231-3.8811c-3.203-4.4803-3.2085-4.4889-1.9811-3.1018 0.60088 0.6791 1.0968 1.3538 1.102 1.4993 0.0052 0.14552 0.15247 0.26458 0.32723 0.26458s-0.06337-1.1264-0.52917-2.5032c-1.2257-3.623-1.0098-3.8215 0.34705-0.31899 0.63888 1.6492 1.4274 3.6183 1.7523 4.3757 0.85418 1.9912 0.50667 1.9176-1.0184-0.21559zm95.792 0.79961c0-0.18258 0.15693-0.42895 0.34874-0.54749 0.19997-0.12359 0.25911 0.018 0.13864 0.33196-0.23452 0.61116-0.48738 0.72298-0.48738 0.21553zm0.35278-1.4111c0-0.18258 0.15693-0.42895 0.34873-0.54749 0.19998-0.12359 0.25912 0.018 0.13865 0.33196-0.23452 0.61115-0.48738 0.72297-0.48738 0.21553zm0.36358-1.6083c0-0.19403 0.15389-0.5909 0.34197-0.88195 0.18809-0.29104 0.34198-0.37041 0.34198-0.17639 0 0.19403-0.15389 0.59091-0.34198 0.88195-0.18808 0.29104-0.34197 0.37042-0.34197 0.17639zm-98.761-5.6738c0.01693-0.41097 0.10052-0.49456 0.21314-0.21314 0.10191 0.25466 0.08937 0.55893-0.02785 0.67616-0.11722 0.11722-0.2006-0.0911-0.18529-0.46302zm99.914-5.0859c0-1.0672 0.0661-1.5037 0.14697-0.97014 0.0808 0.53357 0.0808 1.4067 0 1.9403-0.0808 0.53358-0.14697 0.097-0.14697-0.97013zm1.686 0.14699c0.0169-0.41097 0.10052-0.49456 0.21313-0.21314 0.10191 0.25466 0.0894 0.55893-0.0279 0.67616-0.11722 0.11722-0.2006-0.0911-0.18528-0.46302zm-113.34-10.266c0.25466-0.10191 0.55893-0.0894 0.67616 0.0279 0.11722 0.11723-0.09114 0.20061-0.46302 0.18529-0.41097-0.0169-0.49456-0.10052-0.21314-0.21314zm-2.3754-6.6676c0.01693-0.41096 0.10052-0.49455 0.21314-0.21313 0.10191 0.25466 0.08937 0.55893-0.02785 0.67616-0.11722 0.11722-0.2006-0.0911-0.18529-0.46303zm108.58-13.817c-0.43881-0.55953-0.42633-0.57201 0.13319-0.1332 0.58764 0.46086 0.77452 0.75056 0.48417 0.75056-0.0733 0-0.35107-0.27782-0.61736-0.61736zm27.328-2.5576c0-1.4552 0.0623-2.0505 0.13838-1.3229 0.0761 0.7276 0.0761 1.9182 0 2.6458-0.0761 0.72761-0.13838 0.1323-0.13838-1.3229zm-1.0552-7.2472c-0.11489-0.29941-0.13007-0.62321-0.0337-0.71955 0.0963-0.0963 0.25984 0.14863 0.36333 0.54438 0.21984 0.84065-0.0244 0.97045-0.3296 0.17517zm-0.66541-1.9485c-0.12789-0.20693-0.15687-0.4519-0.0644-0.54438 0.0925-0.0925 0.26214 0.0768 0.37703 0.37625 0.23855 0.62163 0.0352 0.73098-0.31263 0.16813zm-6.2041-9.4133c-0.43881-0.55952-0.42633-0.572 0.13319-0.13319 0.58764 0.46086 0.77452 0.75055 0.48417 0.75055-0.0733 0-0.35107-0.27781-0.61736-0.61736zm-122.02-0.92694c0-0.07326 0.27781-0.35107 0.61736-0.61736 0.55952-0.43881 0.572-0.42633 0.13319 0.13319-0.46086 0.58764-0.75055 0.77452-0.75055 0.48417zm99.931-1.8752c0.34324-0.08945 0.81949-0.08356 1.0583 0.01307s-0.042 0.16982-0.62408 0.16263c-0.58208-0.0072-0.77749-0.08625-0.43425-0.1757zm1.9556-0.34929c0.25466-0.10191 0.55893-0.08937 0.67616 0.02785 0.11722 0.11722-0.0911 0.2006-0.46302 0.18529-0.41097-0.01693-0.49456-0.10052-0.21314-0.21314z" fill="#d4b0d1"/><path d="m126.62 203.41c0.34503-0.23192-0.73563-0.31914-3.3142-0.26749-2.8323 0.0567-3.9504-0.0476-4.3043-0.40147-0.27769-0.27768-0.47812-0.31966-0.47812-0.10014 0 0.20789-0.48562 0.37798-1.0792 0.37798-0.59354 0-1.0051-0.11906-0.91455-0.26458 0.0905-0.14552-1.446-0.21354-3.4146-0.15116-3.8276 0.1213-4.5886-0.21904-1.0023-0.44824 1.184-0.0757 2.2819-0.21734 2.4396-0.31483 0.15773-0.0975 1.625-0.36047 3.2606-0.58442 1.6356-0.22394 3.2186-0.528 3.5178-0.67567 0.29918-0.14768 1.4965-0.46465 2.6606-0.70438 13.538-2.7878 29.891-11.972 40.585-22.794 3.3936-3.434 3.9053-3.833 3.9666-3.0923 0.0387 0.46771 0.56507 1.5694 1.1697 2.4482 0.87129 1.2664 1.0074 1.6827 0.65597 2.007-0.24383 0.22507-0.35733 0.25046-0.25221 0.0564 0.32103-0.59259-0.66238-1.2882-1.091-0.77174-0.25274 0.30454-0.11416 0.91723 0.46662 2.0629 0.60538 1.1942 0.72149 1.7344 0.43452 2.0214-0.21539 0.21539-0.26481 0.39162-0.10982 0.39162 0.15498 0 0.72668-0.47625 1.2704-1.0583 0.54375-0.58208 1.2028-1.0559 1.4645-1.0529 0.28804 3e-3 0.3366 0.10768 0.12304 0.26458-0.19402 0.14255-0.38835 0.41793-0.43183 0.61196-0.43051 1.9211-2.5495 5.4389-5.2756 8.7583-0.45043 0.54846-0.80643 1.1835-0.79111 1.4111 0.0194 0.28809 0.0819 0.27986 0.20578-0.0271 0.10294-0.25511 0.79748-0.4387 1.6478-0.43557 0.93972 3e-3 1.3 0.11311 0.9988 0.30403-0.25911 0.16424-0.47342 0.43962-0.47625 0.61195-3e-3 0.17234-0.15982 0.26972-0.34887 0.21641-0.18905-0.0533-0.25306 0.0498-0.14225 0.22904 0.26454 0.42804-2.2067 2.5918-2.6483 2.3189-0.18722-0.11571-0.29678-0.02-0.24346 0.21272 0.0533 0.2327-0.10162 0.49589-0.34428 0.58487-0.29556 0.10836-0.36312-0.0418-0.20463-0.45475 0.16852-0.43917 0.10947-0.53796-0.20529-0.34343-0.28558 0.1765-0.23717-0.12275 0.13685-0.84604 0.69153-1.3372 0.18016-1.1421-2.7286 1.0415-1.4532 1.0909-2.3818 2.244-1.2376 1.5368 0.80252-0.49598 1.727-0.39921 1.513 0.15838-0.16623 0.43321-0.10783 0.44474 0.34575 0.0683 0.30017-0.24912 0.63488-0.36383 0.74379-0.25492 0.25094 0.25093-4.6796 3.0166-5.8595 3.2868-0.48507 0.11107-1.6258 0.50629-2.5348 0.87827-1.9161 0.78404-2.0513 0.80398-2.0513 0.30274 0-0.20548 0.11906-0.30516 0.26458-0.22151 0.14552 0.0837 0.57017-0.1451 0.94367-0.50834 0.85918-0.8356 0.66867-0.83-1.0571 0.031-0.76225 0.38033-1.1557 0.69783-0.87439 0.70556 1.0965 0.0301-0.24505 0.63681-2.2736 1.0282-1.4112 0.27227-2.1546 0.28881-2.2343 0.0497-0.0657-0.19706-0.25997-0.3583-0.43174-0.3583s-0.22093 0.23813-0.10925 0.52917c0.1485 0.38697-0.0441 0.52916-0.71663 0.52916-0.50583 0-0.91969 0.16434-0.91969 0.36519 0 0.2467-0.23062 0.24177-0.71078-0.0152-0.55888-0.2991-0.75528-0.26449-0.91892 0.16195-0.11446 0.2983-0.32397 0.47076-0.46556 0.38325-0.14159-0.0875-1.3849-0.0386-2.7629 0.1086-1.378 0.14724-2.4268 0.14037-2.3306-0.0153 0.0962-0.15563-0.082-0.28296-0.39593-0.28296-0.31394 0-0.49699 0.11943-0.40678 0.2654 0.0902 0.14597-2.4007 0.3114-5.5354 0.36763-3.787 0.0679-5.5277-0.0132-5.1875-0.24191zm22.33-2.3886c-0.24254-0.0979-0.63941-0.0979-0.88195 0-0.24253 0.0979-0.0441 0.17794 0.44097 0.17794s0.68351-0.0801 0.44098-0.17794zm1.7639-0.35277c-0.24254-0.0979-0.63941-0.0979-0.88195 0-0.24253 0.0979-0.0441 0.17793 0.44097 0.17793s0.68351-0.0801 0.44098-0.17793zm-63.588 1.0028c-2.2931-0.13354-2.2931-0.13354 0.17639-0.82158 13.428-3.7412 25.995-8.8797 35.589-14.552 1.4783-0.87401 2.6878-1.4778 2.6876-1.3418-3.7e-4 0.42781 11.35-0.20441 14.599-0.81314 3.8216-0.7161 3.8286-0.70883 1.5117 1.5637-7.7322 7.5839-23.185 14.041-36.769 15.363-7.7209 0.75151-12.468 0.91209-17.794 0.60191zm-10.649-2.774c0.25466-0.10191 0.55893-0.0894 0.67616 0.0279 0.11722 0.11722-0.09113 0.2006-0.46302 0.18528-0.41097-0.0169-0.49456-0.10052-0.21314-0.21313zm85.438-0.92297c0-0.081 0.91281-0.75083 2.0285-1.4885 1.1157-0.73769 3.2191-2.4626 4.6743-3.8332 2.6458-2.4919 2.6458-2.4919 0.35278-0.0884-2.1851 2.2904-7.0556 6.0249-7.0556 5.41zm-78.029-0.97209c0.44903-0.18009 0.71226-0.49595 0.58497-0.70192-0.12729-0.20596 0.12492-0.68356 0.56048-1.0613 0.43556-0.37776 0.61825-0.68684 0.40599-0.68684s-0.48992 0.16825-0.61701 0.37389c-0.14726 0.23827-0.39011 0.1564-0.66952-0.22572-0.40139-0.54893-0.76374-0.56223-4.2877-0.15738-33.567 3.8564-45.701-6.076-45.95-37.613-0.0868-10.989-0.23491-11.011 3.6706 0.55317 5.4541 16.15 16.995 25.731 36.328 30.158 9.6248 2.2039 23.523 2.0003 17.311-0.25357-0.2155-0.0782-0.07432-0.0843 0.31374-0.0136 2.266 0.41273 10.761 0.88241 13.972 0.7725 4.3534-0.149 4.8681-0.51299-4.7999 3.3939-7.1551 2.8914-10.414 4.0494-14.369 5.1058-2.8705 0.7667-3.8205 0.9047-2.4533 0.35637zm87.29-8.8799c0.0485-0.23792 0.28809-0.64759 0.53241-0.91039 0.24432-0.26279 0.33885-0.64829 0.21007-0.85665-0.13852-0.22414-0.0683-0.27638 0.17186-0.12793 0.29755 0.1839 0.26257 0.52825-0.13094 1.2892-0.55319 1.0697-0.93879 1.3679-0.7834 0.60574zm-44.185-4.2631c0-0.0822 0.67469-0.59442 1.4993-1.1383 0.82462-0.54385 1.3131-0.76338 1.0855-0.48785-0.43769 0.52982-2.5848 1.8806-2.5848 1.6261zm8.1139-5.8544c1.2352-1.0731 1.7686-1.324 1.7585-0.82704-0.0111 0.54083-0.67069 1.2936-0.9174 1.0469-0.14058-0.14058-0.66515-6e-3 -1.1657 0.2986-0.59534 0.36253-0.48308 0.18323 0.32462-0.51844zm4.0569-3.2083c0.35119-0.38806 0.7179-0.70556 0.81491-0.70556 0.097 0-0.11094 0.3175-0.46213 0.70556-0.35118 0.38805-0.71789 0.70555-0.81491 0.70555-0.097 0 0.11095-0.3175 0.46213-0.70555zm2.2931-1.8681c0-0.0899 0.74666-0.77537 1.6593-1.5232 0.91259-0.7478 1.5454-1.1754 1.4062-0.95021-0.29655 0.47983-3.0655 2.7139-3.0655 2.4734zm28.023-1.3951c0.54395-0.7276 1.0551-1.3229 1.1359-1.3229 0.31117 0-0.55587 1.2756-1.3215 1.9442-0.65799 0.57462-0.6244 0.46216 0.18558-0.62131zm-19.308-12.967c5.7805-12.136 5.0943-40.565-1.1812-48.936-3.0065-4.0106-11.165-6.3572-21.645-6.2256-3.5229 0.0443-12.431 0.49371-12.667 0.63908-0.64352 0.39772-12.026 0.88415-12.027 0.51397-2.7e-4 -0.11672 1.0711-0.50211 2.3808-0.85641 2.8355-0.76707 10.15-3.6306 19.172-7.5057 12.192-5.2368 14.12-5.7697 22.721-6.2797 20.781-1.2324 30.332 18.584 20.752 43.055-0.92298 2.3576-1.0008 2.8203-0.41301 2.4571 0.25436-0.15721 0.31144-0.0966 0.15201 0.16132-0.1404 0.22718-0.40335 0.32153-0.58434 0.20967-0.18098-0.11185-0.48751 0.21339-0.68118 0.72277-0.49889 1.3122-0.41478 1.5627 0.17705 0.52743 0.27729-0.48507 0.50979-0.68351 0.51667-0.44097 7e-3 0.24253-0.29177 0.74524-0.66366 1.1171-0.37188 0.37188-0.58355 0.76876-0.47037 0.88194 0.11319 0.11318 0.0206 0.20579-0.20578 0.20579-0.22637 0-0.41158 0.20836-0.41158 0.46303 0 1.0896-14.352 20.645-15.816 21.549-0.1409 0.0871 0.26186-0.9293 0.89503-2.2586zm-96.129-1.5856c-0.61544-0.87312-1.0207-1.5875-0.90055-1.5875 0.2852 0 1.0571 0.98749 1.7235 2.2049 0.78643 1.4366 0.44344 1.1793-0.82298-0.61736zm114.07-23.563c0.13248-0.34791 0.32974-0.54371 0.43836-0.43509 0.10861 0.10862 2.2e-4 0.39327-0.24087 0.63258-0.34841 0.34581-0.38893 0.30529-0.19749-0.19749z" fill="#fab5a5"/><path d="m122.23 202.62c-1.7462-0.18475-4.0878-0.34511-5.2035-0.35636-1.1157-0.0112-2.0285-0.16156-2.0285-0.33404s0.5442-0.3136 1.2093-0.3136c5.3527 0 18.769-4.4828 27.953-9.3401 3.5862-1.8966 3.5862-1.8966 4.2167-1.057 0.45299 0.60321 0.75254 0.7384 1.0638 0.48009 0.33409-0.27727 0.37082-0.13228 0.16047 0.63356-0.1641 0.59751-0.4823 0.9572-0.79878 0.90295-0.28931-0.0496-0.52602 0.14004-0.52602 0.42138s0.17198 0.48066 0.38218 0.44293c0.21019-0.0377 0.35444 0.094 0.32054 0.29269-0.12336 0.72313 1.2658 2.1472 1.5974 1.6376 0.24714-0.37969 0.34768-0.36266 0.52069 0.0882 0.27203 0.70891 0.94211 0.72995 0.94211 0.0296 0-0.63907 0.92717-0.70852 1.1775-0.0882 0.13139 0.32563 0.18522 0.31433 0.20578-0.0432 0.043-0.74777 1.0862 0.23695 1.0862 1.0253 0 0.41093 0.21541 0.58991 0.61736 0.51296 0.33955-0.065 0.72508-0.13033 0.85674-0.14517 0.13167-0.0148 0.48885-0.27646 0.79375-0.58136 0.30491-0.3049 0.55437-0.41195 0.55437-0.23788 0 0.80988-1.5821 1.7554-5.4681 3.268-1.2105 0.47118-5.241 1.4129-6.35 1.4837-0.58208 0.0371-1.1575 0.21021-1.2787 0.38457-0.12121 0.17436-0.99433 0.37209-1.9403 0.4394-0.94595 0.0673-2.3549 0.19207-3.131 0.27725-3.3954 0.37264-14.032 0.4836-16.933 0.17664zm-10.319-0.18885c0.33955-0.0887 0.89517-0.0887 1.2347 0s0.0617 0.16134-0.61736 0.16134c-0.6791 0-0.95691-0.0726-0.61736-0.16134zm-22.628-0.81515c-4.3722-0.17639-4.3722-0.17639-2.4284-0.62451 10.119-2.3327 28.296-9.703 36.174-14.667 1.2094-0.76209 1.8295-0.84955 7.4921-1.0566 3.3955-0.12415 7.523-0.44332 9.1722-0.70926 3.6883-0.59474 3.6916-0.59182 1.5592 1.3709-8.9579 8.2449-24.1 14.114-39.483 15.303-7.2714 0.56208-7.7202 0.57586-12.486 0.38359zm-12.804-2.7104c0.25466-0.10191 0.55893-0.0894 0.67616 0.0279 0.11722 0.11722-0.09113 0.2006-0.46302 0.18528-0.41097-0.0169-0.49456-0.10052-0.21314-0.21313zm7.4089-1.8951c0.44903-0.18009 0.71226-0.49595 0.58497-0.70192-0.12729-0.20596 0.12492-0.68356 0.56048-1.0613 0.43556-0.37776 0.61825-0.68684 0.40599-0.68684s-0.48992 0.16825-0.61701 0.37389c-0.14726 0.23827-0.39011 0.1564-0.66952-0.22572-0.40139-0.54893-0.76374-0.56223-4.2877-0.15738-33.567 3.8564-45.701-6.076-45.95-37.613-0.0868-10.989-0.23491-11.011 3.6706 0.55317 5.4541 16.15 16.995 25.731 36.328 30.158 9.6248 2.2039 23.523 2.0003 17.311-0.25357-0.2155-0.0782-0.07432-0.0843 0.31374-0.0136 2.266 0.41273 10.761 0.88241 13.972 0.7725 4.3534-0.149 4.8681-0.51299-4.7999 3.3939-7.1551 2.8914-10.414 4.0494-14.369 5.1058-2.8705 0.7667-3.8205 0.9047-2.4533 0.35637zm79.793-0.10897c0-0.097 0.47625-0.51551 1.0583-0.92999 0.58209-0.41448 1.0583-0.67422 1.0583-0.57721 0 0.097-0.47625 0.51551-1.0583 0.92999-0.58208 0.41448-1.0583 0.67423-1.0583 0.57721zm4.5861-3.9286c1.25-1.2612 2.352-2.293 2.4491-2.293 0.097 0-0.84631 1.0319-2.0963 2.293s-2.352 2.2931-2.4491 2.2931c-0.097 0 0.84631-1.0319 2.0963-2.2931zm-16.964-2.293c-0.0289-0.29104-0.0337-0.64823-0.0107-0.79375 0.0632-0.40005-0.82315-0.31688-1.2581 0.11806-0.21046 0.21046-0.7321 0.32952-1.1592 0.26458-0.61951-0.0942-0.21156-0.48234 2.0172-1.9193 1.6251-1.0478 2.7938-1.6076 2.7938-1.3384 0 0.25453-0.10018 0.40087-0.22263 0.3252-0.31395-0.19403-1.2385 0.4226-1.2914 0.86132-0.0242 0.2011-0.0639 0.53376-0.0882 0.73924-0.0242 0.20548-0.22738 0.26032-0.45138 0.12188-0.26011-0.16075-0.31119-0.0962-0.14137 0.17855 0.20012 0.3238 0.42978 0.28197 0.92813-0.16903 0.36422-0.32961 0.57834-0.73501 0.47583-0.90088-0.10252-0.16588 0.0634-0.20574 0.36866-0.0886 0.46626 0.17892 0.42037 0.33348-0.28684 0.9661-0.46304 0.41421-1.0172 1.0706-1.2316 1.4587-0.28651 0.51877-0.40357 0.56547-0.44217 0.17639zm-1.1317-32.105c5.7805-12.136 5.0943-40.565-1.1812-48.936-3.0065-4.0106-11.165-6.3572-21.645-6.2256-3.5229 0.0443-12.431 0.49371-12.667 0.63908-0.64352 0.39772-12.026 0.88415-12.027 0.51397-2.7e-4 -0.11672 1.0711-0.50211 2.3808-0.85641 2.8355-0.76707 10.15-3.6306 19.172-7.5057 12.192-5.2368 14.12-5.7697 22.721-6.2797 20.781-1.2324 30.332 18.584 20.752 43.055-0.92298 2.3576-1.0008 2.8203-0.41301 2.4571 0.25436-0.15721 0.31144-0.0966 0.15201 0.16132-0.1404 0.22718-0.40335 0.32153-0.58434 0.20967-0.18098-0.11185-0.48751 0.21339-0.68118 0.72277-0.49889 1.3122-0.41478 1.5627 0.17705 0.52743 0.27729-0.48507 0.50979-0.68351 0.51667-0.44097 7e-3 0.24253-0.29177 0.74524-0.66366 1.1171-0.37188 0.37188-0.58355 0.76876-0.47037 0.88194 0.11319 0.11318 0.0206 0.20579-0.20578 0.20579-0.22637 0-0.41158 0.20836-0.41158 0.46303 0 1.0896-14.352 20.645-15.816 21.549-0.1409 0.0871 0.26186-0.9293 0.89503-2.2586zm-96.129-1.5856c-0.61544-0.87312-1.0207-1.5875-0.90055-1.5875 0.2852 0 1.0571 0.98749 1.7235 2.2049 0.78643 1.4366 0.44344 1.1793-0.82298-0.61736zm114.07-23.563c0.13248-0.34791 0.32974-0.54371 0.43836-0.43509 0.10861 0.10862 2.2e-4 0.39327-0.24087 0.63258-0.34841 0.34581-0.38893 0.30529-0.19749-0.19749z" fill="#faa79b"/><path d="m76.481 198.9c0.25466-0.10191 0.55893-0.0894 0.67616 0.0279 0.11722 0.11722-0.09113 0.2006-0.46302 0.18528-0.41097-0.0169-0.49456-0.10052-0.21314-0.21313zm7.4089-1.8951c0.44903-0.18009 0.71226-0.49595 0.58497-0.70192-0.12729-0.20596 0.12492-0.68356 0.56048-1.0613 0.43556-0.37776 0.61825-0.68684 0.40599-0.68684s-0.48992 0.16825-0.61701 0.37389c-0.14726 0.23827-0.39011 0.1564-0.66952-0.22572-0.40139-0.54893-0.76374-0.56223-4.2877-0.15738-33.567 3.8564-45.701-6.076-45.95-37.613-0.0868-10.989-0.23491-11.011 3.6706 0.55317 5.4541 16.15 16.995 25.731 36.328 30.158 9.6248 2.2039 23.523 2.0003 17.311-0.25357-0.2155-0.0782-0.07432-0.0843 0.31374-0.0136 2.266 0.41273 10.761 0.88241 13.972 0.7725 4.3534-0.149 4.8681-0.51299-4.7999 3.3939-7.1551 2.8914-10.414 4.0494-14.369 5.1058-2.8705 0.7667-3.8205 0.9047-2.4533 0.35637zm66.283-38.435c5.7805-12.136 5.0943-40.565-1.1812-48.936-3.0065-4.0106-11.165-6.3572-21.645-6.2256-3.5229 0.0443-12.431 0.49371-12.667 0.63908-0.64352 0.39772-12.026 0.88415-12.027 0.51397-2.7e-4 -0.11672 1.0711-0.50211 2.3808-0.85641 2.8355-0.76707 10.15-3.6306 19.172-7.5057 12.192-5.2368 14.12-5.7697 22.721-6.2797 20.781-1.2324 30.332 18.584 20.752 43.055-0.92298 2.3576-1.0008 2.8203-0.41301 2.4571 0.25436-0.15721 0.31144-0.0966 0.15201 0.16132-0.1404 0.22718-0.40335 0.32153-0.58434 0.20967-0.18098-0.11185-0.48751 0.21339-0.68118 0.72277-0.49889 1.3122-0.41478 1.5627 0.17705 0.52743 0.27729-0.48507 0.50979-0.68351 0.51667-0.44097 7e-3 0.24253-0.29177 0.74524-0.66366 1.1171-0.37188 0.37188-0.58355 0.76876-0.47037 0.88194 0.11319 0.11318 0.0206 0.20579-0.20578 0.20579-0.22637 0-0.41158 0.20836-0.41158 0.46303 0 1.0896-14.352 20.645-15.816 21.549-0.1409 0.0871 0.26186-0.9293 0.89503-2.2586zm-96.129-1.5856c-0.61544-0.87312-1.0207-1.5875-0.90055-1.5875 0.2852 0 1.0571 0.98749 1.7235 2.2049 0.78643 1.4366 0.44344 1.1793-0.82298-0.61736zm114.07-23.563c0.13248-0.34791 0.32974-0.54371 0.43836-0.43509 0.10861 0.10862 2.2e-4 0.39327-0.24087 0.63258-0.34841 0.34581-0.38893 0.30529-0.19749-0.19749z" fill="#c58bb4"/><path d="m47.708 191.18c-2.047-1.2268-1.8906-1.4216 0.26458-0.32944 1.6402 0.83116 2.1373 1.2394 1.4993 1.2314-0.14552-2e-3 -0.93927-0.40771-1.7639-0.90194zm47.895-0.45878c-0.0034-0.30754-0.26077-0.41534-0.71061-0.2977-0.38786 0.10142-0.79411 0.0406-0.90276-0.13525-0.10866-0.17581 0.56587-0.30712 1.499-0.29181 0.93308 0.0153 1.4584 0.1185 1.1673 0.22929s-0.6458 0.37607-0.78835 0.58951c-0.17352 0.25981-0.26097 0.22873-0.26458-0.094zm-53.32-3.8755c-1.2362-1.3295-2.6095-3.0758-3.0519-3.8806-1.1348-2.0646-0.71084-1.8206 0.63385 0.36481 0.61864 1.0054 2.0058 2.7517 3.0826 3.8806s1.8735 2.0525 1.7704 2.0525c-0.10305 0-1.1988-1.0878-2.435-2.4173zm-7.505-18.132c-0.40756-2.1025-0.68349-18.962-0.31034-18.962 0.19204 0 0.93007 1.8653 1.6401 4.1451 0.70999 2.2798 1.7742 5.3358 2.365 6.791 0.59074 1.4552 1.1691 2.884 1.2852 3.175s-0.1311 0.14769-0.54941-0.31856c-0.41831-0.46625-0.76056-1.0616-0.76056-1.3229 0-1.2666-1.9729-2.3209-2.3745-1.2689-0.12964 0.33955-0.51604 0.91922-0.85867 1.2882s-0.56118 0.77077-0.48565 0.89298c0.21753 0.35196 0.64004 6.7265 0.44585 6.7265-0.09609 0-0.27472-0.51594-0.39696-1.1465zm115.4-10.144c5.7805-12.136 5.0943-40.565-1.1812-48.936-3.0065-4.0106-11.165-6.3572-21.645-6.2256-3.5229 0.0443-12.431 0.49371-12.667 0.63908-0.64352 0.39772-12.026 0.88415-12.027 0.51397-2.7e-4 -0.11672 1.0711-0.50211 2.3808-0.85641 2.8355-0.76707 10.15-3.6306 19.172-7.5057 12.192-5.2368 14.12-5.7697 22.721-6.2797 20.781-1.2324 30.332 18.584 20.752 43.055-0.92298 2.3576-1.0008 2.8203-0.41301 2.4571 0.25436-0.15721 0.31144-0.0966 0.15201 0.16132-0.1404 0.22718-0.40335 0.32153-0.58434 0.20967-0.18098-0.11185-0.48751 0.21339-0.68118 0.72277-0.49889 1.3122-0.41478 1.5627 0.17705 0.52743 0.27729-0.48507 0.50979-0.68351 0.51667-0.44097 7e-3 0.24253-0.29177 0.74524-0.66366 1.1171-0.37188 0.37188-0.58355 0.76876-0.47037 0.88194 0.11319 0.11318 0.0206 0.20579-0.20578 0.20579-0.22637 0-0.41158 0.20836-0.41158 0.46303 0 1.0896-14.352 20.645-15.816 21.549-0.1409 0.0871 0.26186-0.9293 0.89503-2.2586zm-96.129-1.5856c-0.61544-0.87312-1.0207-1.5875-0.90055-1.5875 0.2852 0 1.0571 0.98749 1.7235 2.2049 0.78643 1.4366 0.44344 1.1793-0.82298-0.61736zm114.07-23.563c0.13248-0.34791 0.32974-0.54371 0.43836-0.43509 0.10861 0.10862 2.2e-4 0.39327-0.24087 0.63258-0.34841 0.34581-0.38893 0.30529-0.19749-0.19749z" fill="#a58dc3"/><path d="m47.708 191.18c-2.047-1.2268-1.8906-1.4216 0.26458-0.32944 1.6402 0.83116 2.1373 1.2394 1.4993 1.2314-0.14552-2e-3 -0.93927-0.40771-1.7639-0.90194zm47.895-0.45878c-0.0034-0.30754-0.26077-0.41534-0.71061-0.2977-0.38786 0.10142-0.79411 0.0406-0.90276-0.13525-0.10866-0.17581 0.56587-0.30712 1.499-0.29181 0.93308 0.0153 1.4584 0.1185 1.1673 0.22929s-0.6458 0.37607-0.78835 0.58951c-0.17352 0.25981-0.26097 0.22873-0.26458-0.094zm-53.32-3.8755c-1.2362-1.3295-2.6095-3.0758-3.0519-3.8806-1.1348-2.0646-0.71084-1.8206 0.63385 0.36481 0.61864 1.0054 2.0058 2.7517 3.0826 3.8806s1.8735 2.0525 1.7704 2.0525c-0.10305 0-1.1988-1.0878-2.435-2.4173zm-7.505-18.132c-0.40756-2.1025-0.68349-18.962-0.31034-18.962 0.19204 0 0.93007 1.8653 1.6401 4.1451 0.70999 2.2798 1.7742 5.3358 2.365 6.791 0.59074 1.4552 1.1691 2.884 1.2852 3.175s-0.1311 0.14769-0.54941-0.31856c-0.41831-0.46625-0.76056-1.0616-0.76056-1.3229 0-1.2666-1.9729-2.3209-2.3745-1.2689-0.12964 0.33955-0.51604 0.91922-0.85867 1.2882s-0.56118 0.77077-0.48565 0.89298c0.21753 0.35196 0.64004 6.7265 0.44585 6.7265-0.09609 0-0.27472-0.51594-0.39696-1.1465zm115.15-8.8629c0-0.57729 1.6716-3.6353 2.2049-4.0334 0.71985-0.5375 0.80876-1.3433 0.17639-1.5984-0.24883-0.1004-0.15404-0.19007 0.21753-0.20579 0.4801-0.0203 0.60848-0.21914 0.47387-0.73389-0.10155-0.38832-0.0562-0.62664 0.10088-0.52959 0.15703 0.097 0.45147-0.2996 0.65431-0.88145 0.22394-0.64241 0.23744-1.0579 0.0344-1.0579-0.18393 0-0.33443 0.18521-0.33443 0.41158 0 0.22636-0.0685 0.3431-0.15214 0.25943-0.0837-0.0837 0.0634-1.5953 0.32694-3.3592 0.26349-1.7639 0.6091-6.2859 0.76802-10.049 0.15893-3.7631 0.33889-6.2467 0.39992-5.5191 0.061 0.72761 0.27734 1.3229 0.48069 1.3229 0.21574 0 0.2798 0.35831 0.1538 0.86032-0.11876 0.47318-0.0584 0.95768 0.13411 1.0767 0.20862 0.12893 0.25618-0.0282 0.11773-0.38903-0.15761-0.41071-0.0996-0.52334 0.18043-0.35028 0.27466 0.16975 0.42826-0.0764 0.45917-0.73588 0.0435-0.9278 0.0647-0.91226 0.33377 0.24376 0.29691 1.2759 0.12212-9.4009-0.20297-12.398-1.8957-17.475-14.1-23.296-39.865-19.016-5.554 0.92263-6.5852 1.0407-10.331 1.1831-2.9223 0.1111-2.9223 0.1111 1.2347-1.3664 6.3458-2.2555 9.4734-3.4962 16.303-6.4673 1.8296-0.79592 3.3625-1.4471 3.4066-1.4471 0.044 0-8e-3 0.33552-0.11489 0.74559-0.17507 0.66947-0.11716 0.70394 0.56723 0.33767 0.59725-0.31964 0.74203-0.31103 0.66897 0.03978-0.0513 0.24624 0.26396 0.5022 0.70052 0.56881 0.43656 0.06661 0.79375-0.03189 0.79375-0.21889 0-0.187 0.35719-0.33814 0.79375-0.33587 0.43656 0.0023 3.175-0.12473 6.0854-0.28223 15.665-0.8477 24.097 3.7141 26.947 14.579 0.2163 0.82462 0.56569 2.1586 0.77641 2.9645 0.53515 2.0465 0.75024 10.159 0.33733 12.723-0.23565 1.4632-0.22546 2.3518 0.0325 2.8338 0.22256 0.41587 0.23394 0.61449 0.0279 0.48716-0.35419-0.2189-0.76733 0.84749-0.77605 2.0031-4e-3 0.51231 0.20481 0.60551 1.0555 0.47143 0.60481-0.0953 0.97322-0.0262 0.85756 0.16097-0.11151 0.18043-0.37554 0.22128-0.58673 0.0908-0.25293-0.15632-0.31318 0.0334-0.17655 0.55588 0.19287 0.73751 0.16386 0.75377-0.41318 0.23156-0.87451-0.79143-1.1002-0.70389-1.0533 0.4085 0.0249 0.58942 0.10394 0.7294 0.2015 0.3567 0.14469-0.55273 0.25665-0.56376 1.1314-0.11142 1.1778 0.60904 1.1949 2.2141 0.049 4.5813-0.39447 0.81487-0.71722 1.6783-0.71722 1.9187s-0.6644 1.4206-1.4764 2.6226c-3.3669 4.9839-12.987 17.611-12.987 17.047zm13.647-24.982c-0.11262-0.28143-0.19621-0.19783-0.21314 0.21313-0.0153 0.37189 0.0681 0.58025 0.18529 0.46302 0.11722-0.11722 0.12976-0.42149 0.0278-0.67615zm-41.869-36.682c0-0.16169-0.14938-0.29398-0.33196-0.29398-0.18257 0-0.41371 0.13229-0.51364 0.29398-0.0999 0.16169 0.0495 0.29398 0.33195 0.29398 0.28251 0 0.51365-0.13229 0.51365-0.29398zm44.475 35.093c-0.0136-0.42511 0.13395-0.87105 0.32798-0.99096 0.41726-0.25788 0.41726 0.0873 0 1.0583-0.29231 0.68024-0.30407 0.67782-0.32798-0.0674zm0.95046-0.97389c-0.0985-0.51519 0.0325-1.0634 0.30882-1.2928 0.2639-0.21902 0.47981-0.69627 0.47981-1.0606s0.1502-0.66236 0.33377-0.66236c0.26842 0-0.50176 3.429-0.85514 3.8072-0.0529 0.0567-0.17321-0.29951-0.26726-0.79151zm-12.869-3.5448c3e-3 -0.97014 0.0712-1.3251 0.15225-0.7889 0.0811 0.53625 0.0789 1.33-5e-3 1.7639-0.0837 0.4339-0.15008-5e-3 -0.14743-0.97499zm13.881-0.0936c0.22009-0.14254 0.47948-0.57668 0.57644-0.96473 0.13511-0.54079 0.18583-0.479 0.21719 0.26458 0.0298 0.70619-0.12704 0.96867-0.57643 0.96474-0.3918-3e-3 -0.47116-0.1001-0.2172-0.26459zm-14.253-3.2578c0-0.67909 0.0726-0.95691 0.16133-0.61736 0.0887 0.33955 0.0887 0.89518 0 1.2347-0.0887 0.33955-0.16133 0.0617-0.16133-0.61736zm-25.129-30.868c0-0.18094 1.8408-0.99203 3.2057-1.4125 0.46817-0.14422 0.77184-0.17642 0.67482-0.07155-0.27076 0.2927-3.8806 1.6732-3.8806 1.4841zm32.058-1.4989c-0.43881-0.55952-0.42633-0.572 0.13319-0.13319 0.33955 0.26629 0.61736 0.5441 0.61736 0.61736 0 0.29035-0.28969 0.10347-0.75055-0.48417zm-27.472-0.44097c0.29104-0.18808 0.68792-0.34197 0.88194-0.34197 0.19403 0 0.11466 0.15389-0.17638 0.34197-0.29105 0.18809-0.68792 0.34197-0.88195 0.34197s-0.11465-0.15389 0.17639-0.34197zm6.5264-1.7547c0.67376-0.29833 2.9229-0.50008 2.6164-0.2347-0.0808 0.07001-0.86136 0.22175-1.7345 0.3372-1.06 0.14016-1.3531 0.1061-0.88194-0.1025z" fill="#ac85b7"/><path d="m149.92 159.85c0-0.57729 1.6716-3.6353 2.2049-4.0334 0.71985-0.5375 0.80876-1.3433 0.17639-1.5984-0.24883-0.1004-0.15404-0.19007 0.21753-0.20579 0.4801-0.0203 0.60848-0.21914 0.47387-0.73389-0.10155-0.38832-0.0562-0.62664 0.10088-0.52959 0.15703 0.097 0.45147-0.2996 0.65431-0.88145 0.22394-0.64241 0.23744-1.0579 0.0344-1.0579-0.18393 0-0.33443 0.18521-0.33443 0.41158 0 0.22636-0.0685 0.3431-0.15214 0.25943-0.0837-0.0837 0.0634-1.5953 0.32694-3.3592 0.26349-1.7639 0.6091-6.2859 0.76802-10.049 0.15893-3.7631 0.33889-6.2467 0.39992-5.5191 0.061 0.72761 0.27734 1.3229 0.48069 1.3229 0.21574 0 0.2798 0.35831 0.1538 0.86032-0.11876 0.47318-0.0584 0.95768 0.13411 1.0767 0.20862 0.12893 0.25618-0.0282 0.11773-0.38903-0.15761-0.41071-0.0996-0.52334 0.18043-0.35028 0.27466 0.16975 0.42826-0.0764 0.45917-0.73588 0.0435-0.9278 0.0647-0.91226 0.33377 0.24376 0.29691 1.2759 0.12212-9.4009-0.20297-12.398-1.8957-17.475-14.1-23.296-39.865-19.016-5.554 0.92263-6.5852 1.0407-10.331 1.1831-2.9223 0.1111-2.9223 0.1111 1.2347-1.3664 6.3458-2.2555 9.4734-3.4962 16.303-6.4673 1.8296-0.79592 3.3625-1.4471 3.4066-1.4471 0.044 0-8e-3 0.33552-0.11489 0.74559-0.17507 0.66947-0.11716 0.70394 0.56723 0.33767 0.59725-0.31964 0.74203-0.31103 0.66897 0.03978-0.0513 0.24624 0.26396 0.5022 0.70052 0.56881 0.43656 0.06661 0.79375-0.03189 0.79375-0.21889 0-0.187 0.35719-0.33814 0.79375-0.33587 0.43656 0.0023 3.175-0.12473 6.0854-0.28223 15.665-0.8477 24.097 3.7141 26.947 14.579 0.2163 0.82462 0.56569 2.1586 0.77641 2.9645 0.53515 2.0465 0.75024 10.159 0.33733 12.723-0.23565 1.4632-0.22546 2.3518 0.0325 2.8338 0.22256 0.41587 0.23394 0.61449 0.0279 0.48716-0.35419-0.2189-0.76733 0.84749-0.77605 2.0031-4e-3 0.51231 0.20481 0.60551 1.0555 0.47143 0.60481-0.0953 0.97322-0.0262 0.85756 0.16097-0.11151 0.18043-0.37554 0.22128-0.58673 0.0908-0.25293-0.15632-0.31318 0.0334-0.17655 0.55588 0.19287 0.73751 0.16386 0.75377-0.41318 0.23156-0.87451-0.79143-1.1002-0.70389-1.0533 0.4085 0.0249 0.58942 0.10394 0.7294 0.2015 0.3567 0.14469-0.55273 0.25665-0.56376 1.1314-0.11142 1.1778 0.60904 1.1949 2.2141 0.049 4.5813-0.39447 0.81487-0.71722 1.6783-0.71722 1.9187s-0.6644 1.4206-1.4764 2.6226c-3.3669 4.9839-12.987 17.611-12.987 17.047zm13.647-24.982c-0.11262-0.28143-0.19621-0.19783-0.21314 0.21313-0.0153 0.37189 0.0681 0.58025 0.18529 0.46302 0.11722-0.11722 0.12976-0.42149 0.0278-0.67615zm-41.869-36.682c0-0.16169-0.14938-0.29398-0.33196-0.29398-0.18257 0-0.41371 0.13229-0.51364 0.29398-0.0999 0.16169 0.0495 0.29398 0.33195 0.29398 0.28251 0 0.51365-0.13229 0.51365-0.29398zm-87.08 52.623c0-0.48507 0.08007-0.68351 0.17794-0.44097 0.09786 0.24253 0.09786 0.63941 0 0.88194-0.09786 0.24254-0.17794 0.0441-0.17794-0.44097zm131.56-17.53c-0.0136-0.42511 0.13395-0.87105 0.32798-0.99096 0.41726-0.25788 0.41726 0.0873 0 1.0583-0.29231 0.68024-0.30407 0.67782-0.32798-0.0674zm0.95046-0.97389c-0.0985-0.51519 0.0325-1.0634 0.30882-1.2928 0.2639-0.21902 0.47981-0.69627 0.47981-1.0606s0.1502-0.66236 0.33377-0.66236c0.26842 0-0.50176 3.429-0.85514 3.8072-0.0529 0.0567-0.17321-0.29951-0.26726-0.79151zm-12.869-3.5448c3e-3 -0.97014 0.0712-1.3251 0.15225-0.7889 0.0811 0.53625 0.0789 1.33-5e-3 1.7639-0.0837 0.4339-0.15008-5e-3 -0.14743-0.97499zm13.881-0.0936c0.22009-0.14254 0.47948-0.57668 0.57644-0.96473 0.13511-0.54079 0.18583-0.479 0.21719 0.26458 0.0298 0.70619-0.12704 0.96867-0.57643 0.96474-0.3918-3e-3 -0.47116-0.1001-0.2172-0.26459zm-14.253-3.2578c0-0.67909 0.0726-0.95691 0.16133-0.61736 0.0887 0.33955 0.0887 0.89518 0 1.2347-0.0887 0.33955-0.16133 0.0617-0.16133-0.61736zm-25.129-30.868c0-0.18094 1.8408-0.99203 3.2057-1.4125 0.46817-0.14422 0.77184-0.17642 0.67482-0.07155-0.27076 0.2927-3.8806 1.6732-3.8806 1.4841zm32.058-1.4989c-0.43881-0.55952-0.42633-0.572 0.13319-0.13319 0.33955 0.26629 0.61736 0.5441 0.61736 0.61736 0 0.29035-0.28969 0.10347-0.75055-0.48417zm-27.472-0.44097c0.29104-0.18808 0.68792-0.34197 0.88194-0.34197 0.19403 0 0.11466 0.15389-0.17638 0.34197-0.29105 0.18809-0.68792 0.34197-0.88195 0.34197s-0.11465-0.15389 0.17639-0.34197zm6.5264-1.7547c0.67376-0.29833 2.9229-0.50008 2.6164-0.2347-0.0808 0.07001-0.86136 0.22175-1.7345 0.3372-1.06 0.14016-1.3531 0.1061-0.88194-0.1025z" fill="#987bb8"/></g></svg>
